<svg id="Layer_3" enable-background="new 0 0 512 512" viewBox="0 0 512 512" xmlns="http://www.w3.org/2000/svg"><g><g><path d="m208.4 359.2c-5.3 0-10.5-2-14.6-6-8.1-8-8.2-21.1-.1-29.2l34.5-34.7-34.5-34.7c-8-8.1-8-21.2.1-29.2s21.2-8 29.2.1l46.7 47c9.3 9.3 9.3 24.5 0 33.8l-46.7 47c-4 3.9-9.3 5.9-14.6 5.9z"/></g><g><path d="m256 309.9c-64.5 0-125.3-6.2-171.3-17.5-23.5-5.8-42.3-12.7-55.9-20.6-19.1-11.2-28.8-24.8-28.8-40.5s9.7-29.3 28.8-40.4c13.6-7.9 32.4-14.8 55.9-20.6 46-11.3 106.9-17.5 171.3-17.5s125.3 6.2 171.3 17.5c23.5 5.8 42.3 12.7 55.9 20.6 19.1 11.1 28.8 24.7 28.8 40.4 0 8.7-3.3 21.7-19 33.8-8.8 6.8-21 13-36.4 18.5-28.2 10-66.8 17.6-111.7 22-11.4 1.1-21.5-7.2-22.6-18.6s7.2-21.5 18.6-22.6c36.9-3.6 69.3-9.5 93.7-17.1 20.7-6.4 30.7-12.7 34.6-16.1-5.5-5-22.6-14.7-62.2-23.2-41.5-9-95.2-13.9-151-13.9s-109.4 4.9-151 13.9c-39.6 8.6-56.7 18.3-62.2 23.2 5.5 5 22.6 14.7 62.2 23.2 41.5 9 95.2 13.9 151 13.9 11.4 0 20.7 9.3 20.7 20.7 0 11.6-9.3 20.9-20.7 20.9z"/></g></g></svg>